<svg width="283" height="31" viewBox="0 0 283 31" fill="none" xmlns="http://www.w3.org/2000/svg">
<path d="M20.456 10.0866H15.1293C15.0582 9.53977 14.9126 9.04616 14.6925 8.60582C14.4723 8.16548 14.1811 7.78906 13.8189 7.47656C13.4567 7.16406 13.027 6.92614 12.5298 6.76278C12.0398 6.59233 11.4964 6.5071 10.8999 6.5071C9.84162 6.5071 8.92898 6.76633 8.16193 7.2848C7.40199 7.80327 6.81605 8.55256 6.40412 9.53267C5.99929 10.5128 5.79688 11.6989 5.79688 13.0909C5.79688 14.5398 6.00284 15.7543 6.41477 16.7344C6.83381 17.7074 7.41974 18.4425 8.17259 18.9396C8.93253 19.4297 9.83097 19.6747 10.8679 19.6747C11.4503 19.6747 11.9794 19.6001 12.4553 19.451C12.9382 19.3018 13.3608 19.0852 13.723 18.8011C14.0923 18.5099 14.3942 18.1584 14.6286 17.7464C14.87 17.3274 15.0369 16.8551 15.1293 16.3295L20.456 16.3615C20.3636 17.3274 20.0831 18.2791 19.6143 19.2166C19.1527 20.1541 18.517 21.0099 17.7074 21.7841C16.8977 22.5511 15.9105 23.1619 14.7457 23.6165C13.5881 24.071 12.2599 24.2983 10.7614 24.2983C8.78693 24.2983 7.01847 23.8651 5.45597 22.9986C3.90057 22.125 2.67188 20.8537 1.76989 19.1847C0.867898 17.5156 0.416903 15.4844 0.416903 13.0909C0.416903 10.6903 0.875 8.65554 1.79119 6.98651C2.70739 5.31747 3.94673 4.04972 5.50923 3.18324C7.07173 2.31676 8.82244 1.88352 10.7614 1.88352C12.0824 1.88352 13.304 2.06818 14.4261 2.4375C15.5483 2.79972 16.5355 3.33239 17.3878 4.03551C18.2401 4.73153 18.9325 5.58736 19.4652 6.60298C19.9979 7.61861 20.3281 8.77983 20.456 10.0866ZM31.112 24.3089C29.3933 24.3089 27.916 23.9574 26.6802 23.2543C25.4515 22.544 24.5034 21.5568 23.8358 20.2926C23.1752 19.0213 22.845 17.5476 22.845 15.8714C22.845 14.1882 23.1752 12.7145 23.8358 11.4503C24.5034 10.179 25.4515 9.19176 26.6802 8.48864C27.916 7.77841 29.3933 7.4233 31.112 7.4233C32.8308 7.4233 34.3045 7.77841 35.5332 8.48864C36.769 9.19176 37.7172 10.179 38.3777 11.4503C39.0453 12.7145 39.3791 14.1882 39.3791 15.8714C39.3791 17.5476 39.0453 19.0213 38.3777 20.2926C37.7172 21.5568 36.769 22.544 35.5332 23.2543C34.3045 23.9574 32.8308 24.3089 31.112 24.3089ZM31.144 20.3778C31.769 20.3778 32.2981 20.1861 32.7314 19.8026C33.1646 19.419 33.4949 18.8864 33.7221 18.2045C33.9565 17.5227 34.0737 16.7344 34.0737 15.8395C34.0737 14.9304 33.9565 14.1349 33.7221 13.4531C33.4949 12.7713 33.1646 12.2386 32.7314 11.8551C32.2981 11.4716 31.769 11.2798 31.144 11.2798C30.4977 11.2798 29.9508 11.4716 29.5034 11.8551C29.063 12.2386 28.7257 12.7713 28.4913 13.4531C28.264 14.1349 28.1504 14.9304 28.1504 15.8395C28.1504 16.7344 28.264 17.5227 28.4913 18.2045C28.7257 18.8864 29.063 19.419 29.5034 19.8026C29.9508 20.1861 30.4977 20.3778 31.144 20.3778ZM42.0478 24V7.63636H47.0016V10.6406H47.1827C47.5236 9.64631 48.0989 8.86151 48.9086 8.28622C49.7182 7.71094 50.6841 7.4233 51.8063 7.4233C52.9426 7.4233 53.9157 7.71449 54.7253 8.29688C55.535 8.87926 56.0499 9.66051 56.2701 10.6406H56.4405C56.7459 9.66761 57.3425 8.88991 58.2303 8.30753C59.1181 7.71804 60.1657 7.4233 61.373 7.4233C62.9213 7.4233 64.1784 7.92045 65.1444 8.91477C66.1103 9.90199 66.5932 11.2585 66.5932 12.9844V24H61.3837V14.1776C61.3837 13.3608 61.1742 12.7393 60.7551 12.3132C60.3361 11.88 59.7928 11.6634 59.1252 11.6634C58.4078 11.6634 57.8432 11.8977 57.4313 12.3665C57.0265 12.8281 56.824 13.4496 56.824 14.2308V24H51.8169V14.1243C51.8169 13.3643 51.611 12.7642 51.199 12.3239C50.7871 11.8835 50.2438 11.6634 49.5691 11.6634C49.1145 11.6634 48.7132 11.7734 48.3652 11.9936C48.0172 12.2067 47.7438 12.5121 47.5449 12.9098C47.3532 13.3075 47.2573 13.7763 47.2573 14.3161V24H42.0478ZM69.8212 30.1364V7.63636H74.9775V10.4382H75.1373C75.3503 9.94105 75.6522 9.46165 76.0428 9C76.4405 8.53835 76.9448 8.16193 77.5556 7.87074C78.1735 7.57244 78.9121 7.4233 79.7715 7.4233C80.9078 7.4233 81.9696 7.72159 82.9569 8.31818C83.9512 8.91477 84.7537 9.83452 85.3645 11.0774C85.9753 12.3203 86.2807 13.9041 86.2807 15.8288C86.2807 17.6825 85.986 19.2344 85.3965 20.4844C84.8141 21.7344 84.0257 22.6719 83.0314 23.2969C82.0442 23.9219 80.9469 24.2344 79.7395 24.2344C78.9157 24.2344 78.2019 24.0994 77.5982 23.8295C76.9945 23.5597 76.4867 23.2045 76.0748 22.7642C75.6699 22.3239 75.3574 21.8516 75.1373 21.3473H75.0307V30.1364H69.8212ZM74.9242 15.8182C74.9242 16.6989 75.0414 17.4659 75.2757 18.1193C75.5172 18.7727 75.8617 19.2805 76.3091 19.6428C76.7637 19.9979 77.307 20.1754 77.9391 20.1754C78.5783 20.1754 79.1216 19.9979 79.5691 19.6428C80.0165 19.2805 80.3539 18.7727 80.5811 18.1193C80.8155 17.4659 80.9327 16.6989 80.9327 15.8182C80.9327 14.9375 80.8155 14.174 80.5811 13.5277C80.3539 12.8814 80.0165 12.3807 79.5691 12.0256C79.1287 11.6705 78.5854 11.4929 77.9391 11.4929C77.2999 11.4929 76.7566 11.6669 76.3091 12.0149C75.8617 12.3629 75.5172 12.8601 75.2757 13.5064C75.0414 14.1527 74.9242 14.9233 74.9242 15.8182ZM93.6236 24.277C92.5795 24.277 91.6527 24.103 90.843 23.755C90.0405 23.3999 89.4048 22.8672 88.9361 22.157C88.4744 21.4396 88.2436 20.5412 88.2436 19.4616C88.2436 18.5526 88.4034 17.7855 88.723 17.1605C89.0426 16.5355 89.483 16.0277 90.044 15.6371C90.6051 15.2464 91.2514 14.9517 91.983 14.7528C92.7145 14.5469 93.4957 14.4084 94.3267 14.3374C95.2571 14.2521 96.0064 14.1634 96.5746 14.071C97.1428 13.9716 97.5547 13.8331 97.8104 13.6555C98.0732 13.4709 98.2045 13.2116 98.2045 12.8778V12.8246C98.2045 12.2777 98.0163 11.8551 97.6399 11.5568C97.2635 11.2585 96.7557 11.1094 96.1165 11.1094C95.4276 11.1094 94.8736 11.2585 94.4545 11.5568C94.0355 11.8551 93.7692 12.267 93.6555 12.7926L88.8509 12.6222C88.9929 11.6278 89.3587 10.7401 89.9482 9.95881C90.5447 9.17045 91.3615 8.55256 92.3984 8.10511C93.4425 7.65057 94.696 7.4233 96.1591 7.4233C97.2031 7.4233 98.1655 7.54759 99.0462 7.79616C99.9268 8.03764 100.694 8.39276 101.347 8.86151C102.001 9.32315 102.505 9.89134 102.86 10.5661C103.222 11.2408 103.403 12.0114 103.403 12.8778V24H98.5028V21.7202H98.375C98.0838 22.2741 97.7109 22.7429 97.2564 23.1264C96.8089 23.5099 96.2798 23.7976 95.669 23.9893C95.0653 24.1811 94.3835 24.277 93.6236 24.277ZM95.2322 20.8679C95.7933 20.8679 96.2976 20.7543 96.745 20.527C97.1996 20.2997 97.5618 19.9872 97.8317 19.5895C98.1016 19.1847 98.2365 18.7159 98.2365 18.1832V16.6278C98.0874 16.706 97.9063 16.777 97.6932 16.8409C97.4872 16.9048 97.2599 16.9652 97.0114 17.022C96.7628 17.0788 96.5071 17.1286 96.2443 17.1712C95.9815 17.2138 95.7294 17.2528 95.4879 17.2884C94.9979 17.3665 94.5788 17.4872 94.2308 17.6506C93.8899 17.8139 93.6271 18.027 93.4425 18.2898C93.2649 18.5455 93.1761 18.8509 93.1761 19.206C93.1761 19.7457 93.3679 20.1577 93.7514 20.4418C94.142 20.7259 94.6357 20.8679 95.2322 20.8679ZM111.798 14.6676V24H106.589V7.63636H111.543V10.6406H111.724C112.086 9.6392 112.704 8.8544 113.577 8.28622C114.451 7.71094 115.491 7.4233 116.699 7.4233C117.849 7.4233 118.847 7.68253 119.692 8.20099C120.545 8.71236 121.205 9.42969 121.674 10.353C122.15 11.2692 122.384 12.3416 122.377 13.5703V24H117.168V14.593C117.175 13.6839 116.944 12.9737 116.475 12.4624C116.013 11.951 115.371 11.6953 114.547 11.6953C114 11.6953 113.517 11.8161 113.098 12.0575C112.686 12.2919 112.366 12.6293 112.139 13.0696C111.919 13.5099 111.805 14.0426 111.798 14.6676ZM128.202 30.1364C127.577 30.1364 126.987 30.0866 126.433 29.9872C125.879 29.8949 125.404 29.7706 125.006 29.6143L126.156 25.8324C126.668 26.0028 127.129 26.1023 127.541 26.1307C127.96 26.1591 128.319 26.0916 128.617 25.9283C128.923 25.772 129.157 25.4915 129.32 25.0866L129.523 24.5966L123.706 7.63636H129.161L132.176 19.3125H132.346L135.404 7.63636H140.89L134.722 25.5661C134.423 26.4609 134.001 27.2493 133.454 27.9311C132.914 28.62 132.215 29.1598 131.355 29.5504C130.503 29.9411 129.452 30.1364 128.202 30.1364ZM154.681 8.72301C154.61 7.94176 154.294 7.33452 153.733 6.90128C153.179 6.46094 152.387 6.24077 151.357 6.24077C150.675 6.24077 150.107 6.32955 149.653 6.5071C149.198 6.68466 148.857 6.92969 148.63 7.24219C148.403 7.54759 148.285 7.89915 148.278 8.29688C148.264 8.62358 148.328 8.91122 148.47 9.1598C148.619 9.40838 148.832 9.62855 149.109 9.82031C149.393 10.005 149.734 10.1683 150.132 10.3104C150.53 10.4524 150.977 10.5767 151.474 10.6832L153.349 11.1094C154.429 11.3438 155.381 11.6562 156.204 12.0469C157.035 12.4375 157.731 12.9027 158.292 13.4425C158.861 13.9822 159.29 14.6037 159.581 15.3068C159.873 16.0099 160.022 16.7983 160.029 17.6719C160.022 19.0497 159.674 20.2322 158.985 21.2195C158.296 22.2067 157.305 22.9631 156.013 23.4886C154.727 24.0142 153.175 24.277 151.357 24.277C149.532 24.277 147.941 24.0036 146.584 23.4567C145.228 22.9098 144.173 22.0788 143.42 20.9638C142.667 19.8487 142.28 18.4389 142.259 16.7344H147.309C147.351 17.4375 147.54 18.0234 147.873 18.4922C148.207 18.9609 148.665 19.3161 149.248 19.5575C149.837 19.799 150.519 19.9197 151.293 19.9197C152.003 19.9197 152.607 19.8239 153.104 19.6321C153.608 19.4403 153.996 19.174 154.265 18.8331C154.535 18.4922 154.674 18.1016 154.681 17.6612C154.674 17.2493 154.546 16.8977 154.297 16.6065C154.049 16.3082 153.665 16.0526 153.147 15.8395C152.635 15.6193 151.982 15.4169 151.187 15.2322L148.907 14.6996C147.018 14.2663 145.53 13.5668 144.443 12.6009C143.356 11.6278 142.817 10.3139 142.824 8.65909C142.817 7.30966 143.179 6.12713 143.91 5.11151C144.642 4.09588 145.654 3.30398 146.947 2.7358C148.239 2.16761 149.713 1.88352 151.368 1.88352C153.058 1.88352 154.525 2.17116 155.768 2.74645C157.018 3.31463 157.987 4.11364 158.676 5.14347C159.365 6.1733 159.716 7.36648 159.731 8.72301H154.681ZM173.25 16.9368V7.63636H178.449V24H173.484V20.9531H173.314C172.952 21.9545 172.334 22.75 171.46 23.3395C170.594 23.9219 169.546 24.2131 168.317 24.2131C167.202 24.2131 166.222 23.9574 165.377 23.446C164.532 22.9347 163.875 22.2209 163.406 21.3047C162.937 20.3814 162.699 19.3018 162.692 18.0661V7.63636H167.902V17.0433C167.909 17.9311 168.143 18.6307 168.605 19.142C169.067 19.6534 169.695 19.9091 170.491 19.9091C171.009 19.9091 171.474 19.7955 171.886 19.5682C172.305 19.3338 172.635 18.9964 172.877 18.5561C173.126 18.1087 173.25 17.5689 173.25 16.9368ZM181.765 30.1364V7.63636H186.921V10.4382H187.081C187.294 9.94105 187.596 9.46165 187.986 9C188.384 8.53835 188.888 8.16193 189.499 7.87074C190.117 7.57244 190.855 7.4233 191.715 7.4233C192.851 7.4233 193.913 7.72159 194.9 8.31818C195.895 8.91477 196.697 9.83452 197.308 11.0774C197.919 12.3203 198.224 13.9041 198.224 15.8288C198.224 17.6825 197.929 19.2344 197.34 20.4844C196.757 21.7344 195.969 22.6719 194.975 23.2969C193.988 23.9219 192.89 24.2344 191.683 24.2344C190.859 24.2344 190.145 24.0994 189.542 23.8295C188.938 23.5597 188.43 23.2045 188.018 22.7642C187.613 22.3239 187.301 21.8516 187.081 21.3473H186.974V30.1364H181.765ZM186.868 15.8182C186.868 16.6989 186.985 17.4659 187.219 18.1193C187.461 18.7727 187.805 19.2805 188.252 19.6428C188.707 19.9979 189.25 20.1754 189.882 20.1754C190.522 20.1754 191.065 19.9979 191.512 19.6428C191.96 19.2805 192.297 18.7727 192.525 18.1193C192.759 17.4659 192.876 16.6989 192.876 15.8182C192.876 14.9375 192.759 14.174 192.525 13.5277C192.297 12.8814 191.96 12.3807 191.512 12.0256C191.072 11.6705 190.529 11.4929 189.882 11.4929C189.243 11.4929 188.7 11.6669 188.252 12.0149C187.805 12.3629 187.461 12.8601 187.219 13.5064C186.985 14.1527 186.868 14.9233 186.868 15.8182ZM200.954 30.1364V7.63636H206.11V10.4382H206.27C206.483 9.94105 206.785 9.46165 207.176 9C207.573 8.53835 208.078 8.16193 208.688 7.87074C209.306 7.57244 210.045 7.4233 210.904 7.4233C212.041 7.4233 213.102 7.72159 214.09 8.31818C215.084 8.91477 215.887 9.83452 216.497 11.0774C217.108 12.3203 217.414 13.9041 217.414 15.8288C217.414 17.6825 217.119 19.2344 216.529 20.4844C215.947 21.7344 215.159 22.6719 214.164 23.2969C213.177 23.9219 212.08 24.2344 210.872 24.2344C210.048 24.2344 209.335 24.0994 208.731 23.8295C208.127 23.5597 207.619 23.2045 207.208 22.7642C206.803 22.3239 206.49 21.8516 206.27 21.3473H206.164V30.1364H200.954ZM206.057 15.8182C206.057 16.6989 206.174 17.4659 206.409 18.1193C206.65 18.7727 206.994 19.2805 207.442 19.6428C207.896 19.9979 208.44 20.1754 209.072 20.1754C209.711 20.1754 210.254 19.9979 210.702 19.6428C211.149 19.2805 211.487 18.7727 211.714 18.1193C211.948 17.4659 212.066 16.6989 212.066 15.8182C212.066 14.9375 211.948 14.174 211.714 13.5277C211.487 12.8814 211.149 12.3807 210.702 12.0256C210.262 11.6705 209.718 11.4929 209.072 11.4929C208.433 11.4929 207.889 11.6669 207.442 12.0149C206.994 12.3629 206.65 12.8601 206.409 13.5064C206.174 14.1527 206.057 14.9233 206.057 15.8182ZM225.353 2.18182V24H220.143V2.18182H225.353ZM228.669 24V7.63636H233.878V24H228.669ZM231.279 5.7294C230.547 5.7294 229.919 5.48793 229.393 5.00497C228.868 4.51491 228.605 3.92543 228.605 3.23651C228.605 2.55469 228.868 1.9723 229.393 1.48935C229.919 0.999289 230.547 0.75426 231.279 0.75426C232.018 0.75426 232.646 0.999289 233.165 1.48935C233.69 1.9723 233.953 2.55469 233.953 3.23651C233.953 3.92543 233.69 4.51491 233.165 5.00497C232.646 5.48793 232.018 5.7294 231.279 5.7294ZM244.843 24.3089C243.132 24.3089 241.654 23.9716 240.412 23.2969C239.176 22.6151 238.224 21.6456 237.556 20.3885C236.896 19.1243 236.566 17.6222 236.566 15.8821C236.566 14.1918 236.9 12.7145 237.567 11.4503C238.235 10.179 239.176 9.19176 240.39 8.48864C241.605 7.77841 243.036 7.4233 244.684 7.4233C245.848 7.4233 246.914 7.6044 247.88 7.96662C248.846 8.32883 249.68 8.86506 250.383 9.57528C251.086 10.2855 251.633 11.1626 252.024 12.2067C252.414 13.2436 252.61 14.4332 252.61 15.7756V17.0753H238.387V14.0497H247.762C247.755 13.4957 247.624 13.0021 247.368 12.5689C247.113 12.1357 246.761 11.7983 246.314 11.5568C245.873 11.3082 245.365 11.1839 244.79 11.1839C244.208 11.1839 243.686 11.3153 243.224 11.5781C242.762 11.8338 242.397 12.1854 242.127 12.6328C241.857 13.0732 241.715 13.5739 241.701 14.1349V17.2138C241.701 17.8814 241.832 18.4673 242.095 18.9716C242.358 19.4687 242.73 19.8558 243.213 20.1328C243.696 20.4098 244.272 20.5483 244.939 20.5483C245.401 20.5483 245.82 20.4844 246.196 20.3565C246.573 20.2287 246.896 20.0405 247.166 19.7919C247.436 19.5433 247.638 19.2379 247.773 18.8757L252.556 19.0142C252.358 20.0866 251.921 21.0206 251.246 21.8161C250.578 22.6044 249.701 23.2187 248.615 23.6591C247.528 24.0923 246.271 24.3089 244.843 24.3089ZM255.27 24V7.63636H260.331V10.6193H260.501C260.8 9.53977 261.286 8.73722 261.961 8.21165C262.635 7.67898 263.42 7.41264 264.315 7.41264C264.557 7.41264 264.805 7.4304 265.061 7.46591C265.317 7.49432 265.555 7.54048 265.775 7.6044V12.1321C265.526 12.0469 265.199 11.9794 264.795 11.9297C264.397 11.88 264.042 11.8551 263.729 11.8551C263.111 11.8551 262.554 11.9936 262.057 12.2706C261.567 12.5405 261.18 12.9205 260.895 13.4105C260.618 13.8935 260.48 14.4616 260.48 15.1151V24H255.27ZM282.184 12.6328L277.4 12.7607C277.35 12.4197 277.216 12.1179 276.995 11.8551C276.775 11.5852 276.488 11.3757 276.132 11.2266C275.784 11.0703 275.38 10.9922 274.918 10.9922C274.314 10.9922 273.799 11.1129 273.373 11.3544C272.954 11.5959 272.748 11.9226 272.755 12.3345C272.748 12.6541 272.876 12.9311 273.139 13.1655C273.409 13.3999 273.888 13.5881 274.577 13.7301L277.73 14.3267C279.364 14.6392 280.578 15.1577 281.374 15.8821C282.176 16.6065 282.581 17.5653 282.588 18.7585C282.581 19.8807 282.248 20.8572 281.587 21.6882C280.934 22.5192 280.039 23.1655 278.902 23.6271C277.766 24.0817 276.466 24.3089 275.003 24.3089C272.667 24.3089 270.824 23.8295 269.474 22.8707C268.132 21.9048 267.365 20.6122 267.173 18.9929L272.319 18.8651C272.432 19.4616 272.727 19.9162 273.203 20.2287C273.679 20.5412 274.286 20.6974 275.025 20.6974C275.692 20.6974 276.235 20.5732 276.654 20.3246C277.074 20.076 277.287 19.7457 277.294 19.3338C277.287 18.9645 277.123 18.6697 276.804 18.4496C276.484 18.2223 275.983 18.0447 275.301 17.9169L272.446 17.3736C270.806 17.0753 269.584 16.5249 268.782 15.7223C267.979 14.9126 267.581 13.8828 267.588 12.6328C267.581 11.5391 267.873 10.6051 268.462 9.83097C269.051 9.04972 269.89 8.45313 270.976 8.04119C272.063 7.62926 273.345 7.4233 274.822 7.4233C277.038 7.4233 278.785 7.88849 280.064 8.81889C281.342 9.74219 282.049 11.0135 282.184 12.6328Z" fill="white"/>
</svg>
